<?xml version="1.0" encoding="UTF-8"?>
<svg width="13px" height="18px" viewBox="0 0 13 18" version="1.1" xmlns="http://www.w3.org/2000/svg" xmlns:xlink="http://www.w3.org/1999/xlink">
    <!-- Generator: Sketch 53.1 (72631) - https://sketchapp.com -->
    <title>bullet</title>
    <desc>Created with Sketch.</desc>
    <g id="Page-1" stroke="none" stroke-width="1" fill="none" fill-rule="evenodd">
        <g id="Desktop-HD-Copy-3" transform="translate(-243.000000, -803.000000)" fill="#D4D4D4" fill-rule="nonzero">
            <g id="bullet" transform="translate(243.000000, 803.000000)">
                <path d="M7.01128125,10.9142227 L12.6056252,3.75374906 C12.673629,3.66670761 12.658196,3.54101856 12.5711545,3.4730147 C12.5359899,3.44554121 12.4926472,3.43061719 12.4480227,3.43061719 L9.48248438,3.43061719 L10.9897174,0.739075733 C11.043686,0.642701279 11.0093097,0.520824118 10.9129355,0.466854979 L10.2537629,0.0977207827 C10.1573886,0.0437515972 10.0355112,0.0781274544 9.9815416,0.174501514 L8.15811328,3.43061719 L0.419161793,3.43061719 C0.308704843,3.43061719 0.219161793,3.52016024 0.219161793,3.63061719 C0.219161793,3.6752413 0.234085546,3.71858362 0.261558591,3.75374814 L5.85583594,10.9142227 L5.85583594,16.8444844 L3.72722656,16.8444844 C3.61676961,16.8444844 3.52722656,16.9340274 3.52722656,17.0444844 L3.52722656,17.8 C3.52722656,17.9104569 3.61676961,18 3.72722656,18 L9.13989063,18 C9.25034757,18 9.33989063,17.9104569 9.33989063,17.8 L9.33989063,17.0444844 C9.33989063,16.9340274 9.25034757,16.8444844 9.13989063,16.8444844 L7.01128125,16.8444844 L7.01128125,10.9142227 Z"></path>
            </g>
        </g>
    </g>
</svg>