<?xml version="1.0" encoding="UTF-8"?>
<svg width="19px" height="15px" viewBox="0 0 19 15" version="1.1" xmlns="http://www.w3.org/2000/svg" xmlns:xlink="http://www.w3.org/1999/xlink">
    <!-- Generator: Sketch 53 (72520) - https://sketchapp.com -->
    <title>email</title>
    <desc>Created with Sketch.</desc>
    <g id="Page-1" stroke="none" stroke-width="1" fill="none" fill-rule="evenodd">
        <g id="Desktop-HD-Copy-2" transform="translate(-693.000000, -1526.000000)" fill="#000000" fill-rule="nonzero">
            <g id="Group-7" transform="translate(0.000000, 1408.000000)">
                <g id="email" transform="translate(693.000031, 118.000000)">
                    <path d="M15.9420626,-9.76996262e-14 L2.43108174,-9.76996262e-14 C1.09059131,-9.76996262e-14 4.10666085e-05,1.09058612 4.10666085e-05,2.43104067 L4.10666085e-05,12.5642584 C4.10666085e-05,13.9047488 1.09059131,14.995299 2.43108174,14.995299 L15.9420626,14.995299 C17.282553,14.995299 18.3731033,13.9047129 18.3731033,12.5642584 L18.3731033,2.43104067 C18.3731033,1.09055024 17.282553,-9.76996262e-14 15.9420626,-9.76996262e-14 Z M16.8887492,12.5642584 C16.8887492,13.086244 16.4640482,13.510945 15.9420626,13.510945 L2.43108174,13.510945 C1.90909609,13.510945 1.48439513,13.086244 1.48439513,12.5642584 L1.48439513,2.43104067 C1.48439513,1.90905502 1.90909609,1.48435407 2.43108174,1.48435407 L15.9420626,1.48435407 C16.4640482,1.48435407 16.8887492,1.90905502 16.8887492,2.43104067 L16.8887492,12.5642584 Z" id="Shape"></path>
                    <path d="M18.2389286,2.00544258 C18.0039167,1.66966507 17.5412133,1.58799043 17.2052923,1.82303828 L9.18653628,7.43608852 L1.16781619,1.82300239 C0.832038674,1.58791866 0.369263555,1.66962919 0.134215708,2.0054067 C-0.100832139,2.34118421 -0.019157498,2.80395933 0.316620014,3.03900718 L8.76097408,8.95008373 C8.88876116,9.03954545 9.03764872,9.08422249 9.18657217,9.08422249 C9.33545973,9.08422249 9.48438317,9.03950957 9.61217025,8.95008373 L18.0565243,3.03904306 C18.3923018,2.80399522 18.4739765,2.3412201 18.2389286,2.00544258 Z" id="Path"></path>
                </g>
            </g>
        </g>
    </g>
</svg>