<?xml version="1.0" encoding="UTF-8"?>
<svg width="16px" height="15px" viewBox="0 0 16 15" version="1.1" xmlns="http://www.w3.org/2000/svg" xmlns:xlink="http://www.w3.org/1999/xlink">
    <!-- Generator: Sketch 53 (72520) - https://sketchapp.com -->
    <title>linkedin</title>
    <desc>Created with Sketch.</desc>
    <g id="Page-1" stroke="none" stroke-width="1" fill="none" fill-rule="evenodd">
        <g id="Desktop-HD-Copy-2" transform="translate(-626.000000, -1525.000000)" fill="#000000" fill-rule="nonzero">
            <g id="Group-7" transform="translate(0.000000, 1408.000000)">
                <g id="linkedin" transform="translate(626.000000, 117.022953)">
                    <rect id="Rectangle" x="0.193714286" y="4.86382143" width="3.36485714" height="10.1047143"></rect>
                    <path d="M14.6015,5.78682143 C13.8946786,5.01525 12.9598214,4.62939286 11.7975,4.62939286 C11.36925,4.62939286 10.9799643,4.68207143 10.6298214,4.7875 C10.2797857,4.89285714 9.98414286,5.04067857 9.74275,5.23103571 C9.5015,5.42139286 9.30935714,5.59810714 9.16671429,5.76117857 C9.03107143,5.91607143 8.89842857,6.0965 8.769,6.30060714 L8.769,4.86375 L5.41417857,4.86375 L5.42446429,5.35325 C5.43135714,5.67964286 5.43475,6.68564286 5.43475,8.37139286 C5.43475,10.0572857 5.42796429,12.2562857 5.41432143,14.9686071 L8.769,14.9686071 L8.769,9.32978571 C8.769,8.98317857 8.80617857,8.70792857 8.88110714,8.50382143 C9.02396429,8.15696429 9.23957143,7.86657143 9.52864286,7.63214286 C9.81767857,7.39742857 10.1761429,7.28017857 10.6045357,7.28017857 C11.1889643,7.28017857 11.6190714,7.48239286 11.8944286,7.88685714 C12.1696786,8.29128571 12.3073214,8.85042857 12.3073214,9.56421429 L12.3073214,14.9682857 L15.662,14.9682857 L15.662,9.177 C15.66175,7.68814286 15.3085357,6.55814286 14.6015,5.78682143 Z" id="Path"></path>
                    <path d="M1.89653571,-4.28546088e-14 C1.33239286,-4.28546088e-14 0.875285714,0.164964286 0.525107143,0.494571429 C0.174964286,0.82425 3.57491814e-14,1.24046429 3.57491814e-14,1.74360714 C3.57491814e-14,2.23971429 0.169928571,2.6545 0.509821429,2.9875 C0.849607143,3.32053571 1.29832143,3.48714286 1.85571429,3.48714286 L1.87610714,3.48714286 C2.44717857,3.48714286 2.90778571,3.32067857 3.25782143,2.9875 C3.60785714,2.6545 3.77946429,2.23985714 3.77271429,1.74360714 C3.76592857,1.2405 3.59246429,0.82425 3.25267857,0.494571429 C2.91292857,0.164821429 2.46071429,-4.28546088e-14 1.89653571,-4.28546088e-14 Z" id="Path"></path>
                </g>
            </g>
        </g>
    </g>
</svg>