<?xml version="1.0" encoding="UTF-8"?>
<svg width="40px" height="40px" viewBox="0 0 40 40" version="1.1" xmlns="http://www.w3.org/2000/svg" xmlns:xlink="http://www.w3.org/1999/xlink">
    <!-- Generator: Sketch 53 (72520) - https://sketchapp.com -->
    <title>logo-circle</title>
    <desc>Created with Sketch.</desc>
    <g id="Page-1" stroke="none" stroke-width="1" fill="none" fill-rule="evenodd">
        <g id="Desktop-HD" transform="translate(-113.000000, -10.000000)" fill-rule="nonzero">
            <g id="logo-circle" transform="translate(113.000000, 10.000000)">
                <circle id="Oval" fill="#27251F" cx="20" cy="20" r="20"></circle>
                <g id="Group-2" transform="translate(3.178808, 5.033113)" fill="#FFFEFC">
                    <path d="M8.5180423,8.95534636 L11.1111089,10.2541389 C11.2306624,10.3140198 11.2868468,10.4536094 11.2421123,10.5796157 L10.5334215,12.5758291 C10.5296021,12.5865874 10.5250913,12.5970875 10.5199172,12.6072638 L4.77954513,23.8973268 C4.51295907,24.4216436 3.97860373,24.7558648 3.39049586,24.7661303 L0.137862012,24.8229052 L8.16338185,9.07193573 C8.22947734,8.942216 8.38786995,8.89014678 8.5180423,8.95534636 Z" id="Combined-Shape-Copy" transform="translate(5.697641, 16.875073) rotate(1.000000) translate(-5.697641, -16.875073) "></path>
                    <path d="M27.9203652,12.9288563 L30.513432,14.2276488 C30.6329854,14.2875297 30.6891697,14.4271193 30.6444354,14.5531256 L29.9357446,16.5493391 C29.9319252,16.5600973 29.9274142,16.5705975 29.9222402,16.5807737 L24.1818682,27.8708368 C23.9152821,28.3951536 23.3809268,28.7293748 22.7928189,28.7396403 L19.540185,28.7964151 L27.5657048,13.0454457 C27.6318005,12.9157259 27.790193,12.8636567 27.9203652,12.9288563 Z" id="Combined-Shape-Copy-2" transform="translate(25.099964, 20.848583) scale(-1, 1) rotate(1.000000) translate(-25.099964, -20.848583) "></path>
                    <path d="M16.1589404,0.264900662 L19.8675497,0.264900662 L19.8675497,24.3708609 C19.8675497,24.6634621 19.6303495,24.9006623 19.3377483,24.9006623 L16.6887417,24.9006623 C16.3961405,24.9006623 16.1589404,24.6634621 16.1589404,24.3708609 L16.1589404,0.264900662 Z" id="Rectangle-Copy-9"></path>
                    <path d="M20.7127469,3.70860927 L15.1630115,3.70860927 L10.7833206,12.1854305 L25.0924379,12.1854305 L20.7127469,3.70860927 Z M13.2273731,0 L22.6483854,0 C22.846534,0 23.0281205,0.110571536 23.1190746,0.286611894 L30.7835338,15.121049 C30.9178437,15.3810035 30.8159886,15.7006178 30.5560339,15.8349276 C30.4808548,15.8737702 30.3974652,15.8940397 30.3128445,15.8940397 L5.56291391,15.8940397 C5.27031272,15.8940397 5.03311258,15.6568396 5.03311258,15.3642384 C5.03311258,15.2796178 5.05338212,15.1962281 5.09222469,15.121049 L12.7566838,0.286611894 C12.847638,0.110571536 13.0292245,0 13.2273731,0 Z" id="Rectangle-3-Copy-2"></path>
                </g>
            </g>
        </g>
    </g>
</svg>