<?xml version="1.0" encoding="UTF-8"?>
<svg width="43px" height="40px" viewBox="0 0 43 40" version="1.1" xmlns="http://www.w3.org/2000/svg" xmlns:xlink="http://www.w3.org/1999/xlink">
    <!-- Generator: Sketch 53 (72520) - https://sketchapp.com -->
    <title>logo-original</title>
    <desc>Created with Sketch.</desc>
    <g id="Page-1" stroke="none" stroke-width="1" fill="none" fill-rule="evenodd">
        <g id="Desktop-HD" transform="translate(-183.000000, -10.000000)" fill="#27251F" fill-rule="nonzero">
            <g id="logo-original" transform="translate(183.000000, 10.000000)">
                <path d="M11.8198815,12.2924875 L15.4171404,14.0747176 C15.5829922,14.1568874 15.6609061,14.3484921 15.5988097,14.5214764 L14.6150692,17.2619233 C14.6097675,17.2766925 14.6035065,17.2911075 14.5963255,17.3050782 L6.62930888,32.804775 C6.2593162,33.5245895 5.51787211,33.9835224 4.70193528,33.9977647 L0.189253319,34.0765338 L11.3277997,12.4526242 C11.4195331,12.2745369 11.6392985,12.2030193 11.8198815,12.2924875 Z" id="Combined-Shape-Copy" transform="translate(7.904662, 23.165236) rotate(1.000000) translate(-7.904662, -23.165236) "></path>
                <path d="M38.7389445,17.7470329 L42.3362037,19.529263 C42.5020553,19.6114329 42.5799692,19.8030375 42.5178731,19.9760218 L41.5341325,22.7164688 C41.5288309,22.731238 41.5225697,22.745653 41.5153887,22.7596236 L33.5483721,38.2593206 C33.1783794,38.9791352 32.4369353,39.4380679 31.6209985,39.4523101 L27.1083165,39.5310792 L38.2468629,17.9071696 C38.3385964,17.7290823 38.5583618,17.6575647 38.7389445,17.7470329 Z" id="Combined-Shape-Copy-2" transform="translate(34.823726, 28.619781) scale(-1, 1) rotate(1.000000) translate(-34.823726, -28.619781) "></path>
                <path d="M22.4188034,0.363636364 L27.5641026,0.363636364 L27.5641026,33.4545455 C27.5641026,33.8562071 27.2350127,34.1818182 26.8290598,34.1818182 L23.1538462,34.1818182 C22.7478933,34.1818182 22.4188034,33.8562071 22.4188034,33.4545455 L22.4188034,0.363636364 Z" id="Rectangle-Copy-9"></path>
                <path d="M28.7367235,5.09090909 L21.0370585,5.09090909 L14.9607052,16.7272727 L34.8130768,16.7272727 L28.7367235,5.09090909 Z M18.3515669,0 L31.422215,0 C31.6971251,0 31.9490569,0.151784564 32.0752461,0.393439964 L42.7088643,20.7570763 C42.895205,21.1139229 42.7538919,21.5526663 42.3932325,21.737037 C42.2889296,21.7903573 42.1732353,21.8181818 42.0558332,21.8181818 L7.71794872,21.8181818 C7.31199582,21.8181818 6.98290598,21.4925707 6.98290598,21.0909091 C6.98290598,20.974748 7.0110278,20.8602768 7.06491771,20.7570763 L17.6985359,0.393439964 C17.8247252,0.151784564 18.0766569,0 18.3515669,0 Z" id="Rectangle-3-Copy-2"></path>
            </g>
        </g>
    </g>
</svg>