<?xml version="1.0" encoding="UTF-8"?>
<svg width="20px" height="16px" viewBox="0 0 20 16" version="1.1" xmlns="http://www.w3.org/2000/svg" xmlns:xlink="http://www.w3.org/1999/xlink">
    <!-- Generator: Sketch 53 (72520) - https://sketchapp.com -->
    <title>twitter</title>
    <desc>Created with Sketch.</desc>
    <g id="Page-1" stroke="none" stroke-width="1" fill="none" fill-rule="evenodd">
        <g id="Desktop-HD-Copy-2" transform="translate(-557.000000, -1526.000000)" fill="#27251F" fill-rule="nonzero">
            <g id="Group-7" transform="translate(0.000000, 1408.000000)">
                <g id="twitter" transform="translate(557.000000, 117.997667)">
                    <path d="M6.18110236,16 C13.6062992,16 17.6692913,9.84251969 17.6692913,4.51181102 C17.6692913,4.33858268 17.6692913,4.16535433 17.6614173,3.99212598 C18.4488189,3.42519685 19.1338583,2.70866142 19.6771654,1.8976378 C18.9527559,2.22047244 18.1732283,2.43307087 17.3543307,2.53543307 C18.1889764,2.03937008 18.8267717,1.24409449 19.1338583,0.299212598 C18.3543307,0.763779528 17.488189,1.09448819 16.5669291,1.27559055 C15.8267717,0.488188976 14.7795276,0 13.6220472,0 C11.3937008,0 9.58267717,1.81102362 9.58267717,4.03937008 C9.58267717,4.35433071 9.62204724,4.66141732 9.68503937,4.96062992 C6.33070866,4.79527559 3.35433071,3.18110236 1.36220472,0.74015748 C1.01574803,1.33858268 0.818897638,2.03149606 0.818897638,2.77165354 C0.818897638,4.17322835 1.53543307,5.40944882 2.61417323,6.13385827 C1.95275591,6.11023622 1.33070866,5.92913386 0.787401575,5.62992126 C0.787401575,5.64566929 0.787401575,5.66141732 0.787401575,5.68503937 C0.787401575,7.63779528 2.18110236,9.27559055 4.02362205,9.64566929 C3.68503937,9.74015748 3.33070866,9.78740157 2.96062992,9.78740157 C2.7007874,9.78740157 2.4488189,9.76377953 2.20472441,9.71653543 C2.71653543,11.3228346 4.21259843,12.488189 5.97637795,12.519685 C4.59055118,13.6062992 2.8503937,14.2519685 0.960629921,14.2519685 C0.637795276,14.2519685 0.31496063,14.2362205 1.49213975e-13,14.1968504 C1.77952756,15.3307087 3.90551181,16 6.18110236,16" id="Path"></path>
                </g>
            </g>
        </g>
    </g>
</svg>