<?xml version="1.0" encoding="UTF-8"?>
<svg width="27px" height="15px" viewBox="0 0 27 15" version="1.1" xmlns="http://www.w3.org/2000/svg" xmlns:xlink="http://www.w3.org/1999/xlink">
    <!-- Generator: Sketch 53 (72520) - https://sketchapp.com -->
    <title>uplabs</title>
    <desc>Created with Sketch.</desc>
    <g id="Page-1" stroke="none" stroke-width="1" fill="none" fill-rule="evenodd">
        <g id="Desktop-HD-Copy-2" transform="translate(-757.000000, -1526.000000)" fill="#27251F" fill-rule="nonzero">
            <g id="Group-7" transform="translate(0.000000, 1408.000000)">
                <g id="uplabs" transform="translate(757.049960, 118.149873)">
                    <path d="M8.62566371,0.418566176 L8.62566371,6.16433824 C8.62566371,7.115625 8.41930811,7.80055147 8.00659694,8.21911765 C7.59388576,8.63768382 6.93354786,8.86599265 6.02558326,8.86599265 C5.11761866,8.86599265 4.45728078,8.67573529 4.04456958,8.25716912 C3.6318584,7.83860294 3.4255028,7.15367647 3.4255028,6.16433824 L3.4255028,0.418566176 L7.1942452e-14,0.418566176 L7.1942452e-14,6.16433824 C7.1942452e-14,7.87665441 0.371440063,9.13235294 1.11432019,10.0455882 C1.23813355,10.1597426 1.32067579,10.3119485 1.44448914,10.4261029 C2.43499598,11.3393382 3.96202736,11.7959559 6.02558326,11.7959559 C8.04786806,11.7959559 9.57489944,11.3393382 10.5654063,10.4261029 C10.6892196,10.3119485 10.7717619,10.1977941 10.8955752,10.0455882 C11.6384553,9.13235294 12.0098954,7.83860294 12.0098954,6.16433824 L12.0098954,0.418566176 L8.62566371,0.418566176 Z" id="Path"></path>
                    <path d="M14.1559936,14.8020221 L14.1559936,0.380514706 L17.457683,0.380514706 L17.457683,2.16893382 C17.9116653,1.44595588 18.4481899,0.913235294 19.1085278,0.532720588 C19.7688656,0.190257353 20.5117458,8.79296636e-14 21.3784393,8.79296636e-14 C23.0705551,8.79296636e-14 24.3912309,0.532720588 25.3404665,1.56011029 C26.2897024,2.5875 26.7849558,4.03345588 26.7849558,5.85992647 C26.7849558,7.64834559 26.2897024,9.05625 25.3404665,10.1216912 C24.3912309,11.1871324 23.1118262,11.7198529 21.5435237,11.7198529 C20.594288,11.7198529 19.8101368,11.5676471 19.1497989,11.2251838 C18.489461,10.9207721 17.9116653,10.3880515 17.457683,9.703125 C17.4989541,9.96948529 17.5402253,10.2738971 17.5402253,10.6163603 C17.5402253,10.9207721 17.5814964,11.3012868 17.5814964,11.7198529 L17.5814964,14.7639706 L14.1559936,14.7639706 L14.1559936,14.8020221 Z M17.2925986,5.85992647 C17.2925986,6.84926471 17.5402253,7.61029412 18.0767498,8.18106618 C18.6132743,8.71378676 19.3561545,9.01819853 20.2641191,9.01819853 C21.2133548,9.01819853 21.9562349,8.75183824 22.4514883,8.18106618 C22.9880129,7.64834559 23.2356396,6.84926471 23.2356396,5.85992647 C23.2356396,4.87058824 22.9880129,4.10955882 22.4514883,3.53878676 C21.9149638,2.96801471 21.1720837,2.70165441 20.2228479,2.70165441 C19.3148833,2.70165441 18.5720032,3.00606618 18.0354787,3.57683824 C17.5402253,4.07150735 17.2925986,4.87058824 17.2925986,5.85992647 Z" id="Shape"></path>
                    <path d="M10.9411907,14.8477941 C10.8171849,14.7327046 10.7345143,14.5792519 10.6105085,14.4641624 C9.61846186,13.5434463 8.08905668,13.0830882 6.02229294,13.0830882 C3.99686448,13.0830882 2.4674593,13.5434463 1.47541269,14.4641624 C1.35140686,14.5792519 1.26873632,14.6943414 1.14473049,14.8477941 L10.9411907,14.8477941 Z" id="Path"></path>
                </g>
            </g>
        </g>
    </g>
</svg>